<svg width="29" height="28" viewBox="0 0 29 28" fill="none" xmlns="http://www.w3.org/2000/svg">
<path d="M16.0003 7.51341H13.167V12.7913H7.50033V15.4303H13.167V20.7082H16.0003V15.4303H21.667V12.7913H16.0003V7.51341ZM14.5837 0.916016C6.76366 0.916016 0.416992 6.82728 0.416992 14.1108C0.416992 21.3943 6.76366 27.3056 14.5837 27.3056C22.4037 27.3056 28.7503 21.3943 28.7503 14.1108C28.7503 6.82728 22.4037 0.916016 14.5837 0.916016ZM14.5837 24.6667C8.33616 24.6667 3.25033 19.9297 3.25033 14.1108C3.25033 8.29191 8.33616 3.55498 14.5837 3.55498C20.8312 3.55498 25.917 8.29191 25.917 14.1108C25.917 19.9297 20.8312 24.6667 14.5837 24.6667Z" fill="black"/>
</svg>
