<svg width="41" height="34" viewBox="0 0 41 34" fill="none" xmlns="http://www.w3.org/2000/svg">
<path d="M13.0475 22.4148H34.3483C34.8758 22.4148 35.3385 22.0832 35.4812 21.6017L40.1975 5.91124C40.2988 5.57298 40.2294 5.20962 40.0062 4.92856C39.7827 4.64838 39.4351 4.4829 39.0642 4.4829H10.3257L9.4829 0.877901C9.36316 0.364527 8.8842 0 8.33155 0H1.17899C0.527476 0 0 0.501408 0 1.12072C0 1.74033 0.527476 2.24145 1.17899 2.24145H7.38528L11.6429 20.4532C10.3902 20.971 9.51054 22.1562 9.51054 23.5355C9.51054 25.3894 11.0973 26.8977 13.0475 26.8977H34.3483C35.0001 26.8977 35.5273 26.3966 35.5273 25.777C35.5273 25.1576 35.0001 24.6562 34.3483 24.6562H13.0475C12.3981 24.6562 11.8685 24.154 11.8685 23.5355C11.8685 22.9171 12.3981 22.4148 13.0475 22.4148V22.4148Z" fill="black"/>
<path d="M11.8682 30.2596C11.8682 32.1138 13.4549 33.6218 15.4054 33.6218C17.3557 33.6218 18.9424 32.1138 18.9424 30.2596C18.9424 28.4058 17.3557 26.8975 15.4054 26.8975C13.4549 26.8975 11.8682 28.4058 11.8682 30.2596Z" fill="black"/>
<path d="M28.4531 30.2596C28.4531 32.1138 30.0399 33.6218 31.9901 33.6218C33.9407 33.6218 35.5271 32.1138 35.5271 30.2596C35.5271 28.4058 33.9407 26.8975 31.9901 26.8975C30.0399 26.8975 28.4531 28.4058 28.4531 30.2596Z" fill="black"/>
</svg>
