<svg width="57" height="48" viewBox="0 0 57 48" fill="none" xmlns="http://www.w3.org/2000/svg">
<path d="M18.4804 31.7482H48.6507C49.3978 31.7482 50.0532 31.2786 50.2554 30.5965L56.9355 8.37264C57.079 7.89353 56.9807 7.37887 56.6645 6.98078C56.348 6.58394 55.8557 6.34955 55.3304 6.34955H14.6253L13.4315 1.24345C13.2619 0.516314 12.5835 0 11.8007 0H1.66992C0.747114 0 0 0.710191 0 1.58739C0 2.465 0.747114 3.17478 1.66992 3.17478H10.4605L16.4909 28.9698C14.7166 29.7032 13.4707 31.3819 13.4707 33.3356C13.4707 35.9614 15.7181 38.0977 18.4804 38.0977H48.6507C49.5739 38.0977 50.3206 37.3879 50.3206 36.5103C50.3206 35.6331 49.5739 34.9229 48.6507 34.9229H18.4804C17.5607 34.9229 16.8105 34.2115 16.8105 33.3356C16.8105 32.4596 17.5607 31.7482 18.4804 31.7482Z" fill="#FF6295"/>
<path d="M16.8105 42.8598C16.8105 45.486 19.058 47.622 21.8207 47.622C24.5831 47.622 26.8305 45.486 26.8305 42.8598C26.8305 40.234 24.5831 38.0977 21.8207 38.0977C19.058 38.0977 16.8105 40.234 16.8105 42.8598Z" fill="#FF6295"/>
<path d="M40.3008 42.8598C40.3008 45.486 42.5482 47.622 45.3105 47.622C48.0733 47.622 50.3203 45.486 50.3203 42.8598C50.3203 40.234 48.0733 38.0977 45.3105 38.0977C42.5482 38.0977 40.3008 40.234 40.3008 42.8598Z" fill="#FF6295"/>
</svg>
